<svg xmlns="http://www.w3.org/2000/svg" xmlns:xlink="http://www.w3.org/1999/xlink" contentStyleType="text/css" data-diagram-type="CLASS" height="268px" preserveAspectRatio="none" style="width:241px;height:268px;background:#FFFFFF;" version="1.1" viewBox="0 0 241 268" width="241px" zoomAndPan="magnify"><defs/><g><!--class Singleton--><g class="entity" data-entity="Singleton" data-source-line="1" data-uid="ent0002" id="entity_Singleton"><rect fill="#F1F1F1" height="113.1875" rx="2.5" ry="2.5" style="stroke:#181818;stroke-width:0.5;" width="227.0449" x="7" y="148"/><ellipse cx="83.2891" cy="164" fill="#ADD1B2" rx="11" ry="11" style="stroke:#181818;stroke-width:1;"/><path d="M86.2578,169.6406 Q85.6797,169.9375 85.0391,170.0781 Q84.3984,170.2344 83.6953,170.2344 Q81.1953,170.2344 79.8672,168.5938 Q78.5547,166.9375 78.5547,163.8125 Q78.5547,160.6875 79.8672,159.0313 Q81.1953,157.375 83.6953,157.375 Q84.3984,157.375 85.0391,157.5313 Q85.6953,157.6875 86.2578,157.9844 L86.2578,160.7031 Q85.6328,160.125 85.0391,159.8594 Q84.4453,159.5781 83.8203,159.5781 Q82.4766,159.5781 81.7891,160.6563 Q81.1016,161.7188 81.1016,163.8125 Q81.1016,165.9063 81.7891,166.9844 Q82.4766,168.0469 83.8203,168.0469 Q84.4453,168.0469 85.0391,167.7813 Q85.6328,167.5 86.2578,166.9219 L86.2578,169.6406 Z " fill="#000000"/><text fill="#000000" font-family="sans-serif" font-size="14" lengthAdjust="spacing" textLength="65.9668" x="103.7891" y="168.8467">Singleton</text><line style="stroke:#181818;stroke-width:0.5;" x1="8" x2="233.0449" y1="180" y2="180"/><rect fill="none" height="6" style="stroke:#C82930;stroke-width:1;" width="6" x="15" y="190.6484"/><text fill="#000000" font-family="sans-serif" font-size="14" lengthAdjust="spacing" textLength="166.8926" x="27" y="196.9951">__instance : Singleton__</text><line style="stroke:#181818;stroke-width:0.5;" x1="8" x2="233.0449" y1="204.2969" y2="204.2969"/><rect fill="#F24D5C" height="6" style="stroke:#C82930;stroke-width:1;" width="6" x="15" y="214.9453"/><text fill="#000000" font-family="sans-serif" font-size="14" lengthAdjust="spacing" textLength="76.8906" x="27" y="221.292">Singleton()</text><ellipse cx="18" cy="234.2422" fill="#84BE84" rx="3" ry="3" style="stroke:#038048;stroke-width:1;"/><text fill="#000000" font-family="sans-serif" font-size="14" lengthAdjust="spacing" textLength="201.0449" x="27" y="237.5889">__getInstance() : Singleton__</text><ellipse cx="18" cy="250.5391" fill="#84BE84" rx="3" ry="3" style="stroke:#038048;stroke-width:1;"/><text fill="#000000" font-family="sans-serif" font-size="14" lengthAdjust="spacing" textLength="151.71" x="27" y="253.8857">showMessage() : void</text></g><!--class Client--><g class="entity" data-entity="Client" data-source-line="8" data-uid="ent0003" id="entity_Client"><rect fill="#F1F1F1" height="64.2969" rx="2.5" ry="2.5" style="stroke:#181818;stroke-width:0.5;" width="211.9854" x="14.5" y="7"/><ellipse cx="95.9775" cy="23" fill="#ADD1B2" rx="11" ry="11" style="stroke:#181818;stroke-width:1;"/><path d="M98.9463,28.6406 Q98.3682,28.9375 97.7275,29.0781 Q97.0869,29.2344 96.3838,29.2344 Q93.8838,29.2344 92.5557,27.5938 Q91.2432,25.9375 91.2432,22.8125 Q91.2432,19.6875 92.5557,18.0313 Q93.8838,16.375 96.3838,16.375 Q97.0869,16.375 97.7275,16.5313 Q98.3838,16.6875 98.9463,16.9844 L98.9463,19.7031 Q98.3213,19.125 97.7275,18.8594 Q97.1338,18.5781 96.5088,18.5781 Q95.165,18.5781 94.4775,19.6563 Q93.79,20.7188 93.79,22.8125 Q93.79,24.9063 94.4775,25.9844 Q95.165,27.0469 96.5088,27.0469 Q97.1338,27.0469 97.7275,26.7813 Q98.3213,26.5 98.9463,25.9219 L98.9463,28.6406 Z " fill="#000000"/><text fill="#000000" font-family="sans-serif" font-size="14" lengthAdjust="spacing" textLength="40.5303" x="116.4775" y="27.8467">Client</text><line style="stroke:#181818;stroke-width:0.5;" x1="15.5" x2="225.4854" y1="39" y2="39"/><line style="stroke:#181818;stroke-width:0.5;" x1="15.5" x2="225.4854" y1="47" y2="47"/><ellipse cx="25.5" cy="60.6484" fill="#84BE84" rx="3" ry="3" style="stroke:#038048;stroke-width:1;"/><text fill="#000000" font-family="sans-serif" font-size="14" lengthAdjust="spacing" textLength="185.9854" x="34.5" y="63.9951">main(args : String[]) : void</text></g><!--link Client to Singleton--><g class="link" data-entity-1="Client" data-entity-2="Singleton" data-source-line="12" data-uid="lnk4" id="link_Client_Singleton"><path codeLine="12" d="M120.5,71.14 C120.5,92.82 120.5,116.33 120.5,141.98" fill="none" id="Client-to-Singleton" style="stroke:#181818;stroke-width:1;"/><polygon fill="#181818" points="120.5,147.98,124.5,138.98,120.5,142.98,116.5,138.98,120.5,147.98" style="stroke:#181818;stroke-width:1;"/><text fill="#000000" font-family="sans-serif" font-size="13" lengthAdjust="spacing" textLength="29.7832" x="121.5" y="114.0669">uses</text></g><!--SRC=[Iyv9B2vM2CxCIyz9BSdFKwZcKW02NONu-CoyufB4lEHK1Ik4T7myL1ekeg495j46QaXFBV64wj7GnA9BMw4u8x_SDxMuE34Teg8iFpE5gvQBAndi2EUSpDIy4gWBj1Lo4pFpD1ABqej1HfKK0GsBZaNM15Mkgsk7v7mhXTBYr680]--></g></svg>